# xmcd CD database file
#
# Track frame offsets:
#	150
#	13745
#	31505
#	43317
#	56697
#	67667
#	77957
#	87207
#	103302
#	118712
#	131847
#	144110
#	164380
#	196690
#	236942
#	263447
#	287965
#	319307
#
# Disc length: 4408 seconds
#
# Revision: 0
# Processed by: cddbd v1.5.2PL0 Copyright (c) Steve Scherf et al.
# Submitted via: CDex 1.51
#
DISCID=fc113612
DTITLE=Art Farmer and The Barroque Orchestra - Baroque Sketches
DYEAR=2001
DGENRE=Jazz
TTITLE0=Fuja Ki
TTITLE1=Aria
TTITLE2=Little David's Fugue 
TTITLE3=Prelude in "E" Minor
TTITLE4=Sinfonia
TTITLE5=Zortzico
TTITLE6=Alfie's Theme
TTITLE7=Jesu
TTITLE8=Etude
TTITLE9=Prelude in "A" Minor
TTITLE10=Rhythim of Life
TTITLE11=The Time and the Place
TTITLE12=The Shadow of your Smile
TTITLE13=One for Juan
TTITLE14=Mino's Scene
TTITLE15=Short Cake
TTITLE16=Make Someone Happy
TTITLE17=On the Trial
EXTD=YEAR: 2001
EXTT0=
EXTT1=
EXTT2=
EXTT3=
EXTT4=
EXTT5=
EXTT6=
EXTT7=
EXTT8=
EXTT9=
EXTT10=
EXTT11=
EXTT12=
EXTT13=
EXTT14=
EXTT15=
EXTT16=
EXTT17=
PLAYORDER=
